# xmcd
#
# Track frame offsets:
#  182
#  13322
#  27797
#  47605
#  60222
#  71035
#  85322
#  98160
#  114590
#  129080
#  147580
#  158765
#  175462
#  193555
#  202777
#  217580
#  230242
#  249597
#
# Disc length: 3483 seconds
#
# Revision: 0
# Processed by: cddbd v1.4PL0 Copyright (c) Steve Scherf et al.
# Submitted via: AltoMP3_Maker 3.0
#
DISCID=f20d9912
DTITLE=Marty Robbins - The Country Store Collection
DYEAR=1900
DGENRE=
TTITLE0=Devil Woman
TTITLE1=Cool Water
TTITLE2=El Paso
TTITLE3=Streets of Laredo
TTITLE4=I did what I did for Maria
TTITLE5=Have I told you lately that I love you
TTITLE6=Maria Elena
TTITLE7=Adios Amigo
TTITLE8=By the Time I get to Phoenix
TTITLE9=The Air that I breathe
TTITLE10=Singing the BLues
TTITLE11=Ballad of the Alamo
TTITLE12=Big Iron
TTITLE13=Ruby Ann
TTITLE14=Some Memories just won`t die
TTITLE15=Honky Tonk Man
TTITLE16=El Paso City
TTITLE17=Yellow Roses
EXTD=
EXTT0=
EXTT1=
EXTT2=
EXTT3=
EXTT4=
EXTT5=
EXTT6=
EXTT7=
EXTT8=
EXTT9=
EXTT10=
EXTT11=
EXTT12=
EXTT13=
EXTT14=
EXTT15=
EXTT16=
EXTT17=
PLAYORDER=
